<svg width="1130" height="308" viewBox="0 0 1130 308" fill="none" xmlns="http://www.w3.org/2000/svg">
<path d="M121.8 2.29999C56.02 2.29999 2.20001 56.12 2.20001 121.9C2.20001 187.68 56.02 241.5 121.8 241.5C187.58 241.5 241.4 188.012 241.4 121.9C241.4 55.787 187.912 2.29999 121.8 2.29999ZM121.8 198.643C80.937 198.643 48.046 165.089 48.046 121.9C48.046 78.711 80.937 45.156 121.8 45.156C162.663 45.156 195.553 78.711 195.553 121.9C195.553 165.089 162.663 198.643 121.8 198.643Z" fill="black"/>
<path d="M362.326 68.744C340.732 68.744 319.802 77.382 308.838 92V72.066H265.649V304.622H308.838V220.57C319.802 234.191 340.067 241.5 362.326 241.5C408.837 241.5 445.382 204.955 445.382 155.122C445.382 105.289 408.837 68.744 362.326 68.744ZM355.017 203.959C330.433 203.959 308.506 184.69 308.506 155.122C308.506 125.554 330.433 106.285 355.017 106.285C379.602 106.285 401.528 125.554 401.528 155.122C401.528 184.69 379.602 203.959 355.017 203.959Z" fill="black"/>
<path d="M547.046 68.744C499.871 68.744 462.662 105.621 462.662 155.122C462.662 204.623 495.22 241.5 548.375 241.5C591.896 241.5 619.803 215.254 628.441 185.686H586.249C580.933 197.979 565.983 206.616 548.043 206.616C525.784 206.616 508.841 191.002 504.854 168.743H630.434V151.8C630.434 106.617 598.873 68.744 547.046 68.744ZM505.186 138.179C509.838 117.249 527.113 103.627 548.043 103.627C570.302 103.627 587.245 118.245 589.239 138.179H505.186Z" fill="black"/>
<path d="M745.38 68.744C726.111 68.744 705.845 77.382 696.543 91.667V72.066H653.354V238.177H696.543V148.81C696.543 122.896 710.496 105.953 733.087 105.953C754.017 105.953 765.31 121.9 765.31 144.159V238.177H808.5V137.182C808.5 95.986 783.25 68.744 745.38 68.744Z" fill="black"/>
<path d="M919.12 5.62799L825.1 238.184H871.28L891.21 187.354H998.19L1018.12 238.184H1064.96L971.61 5.62799H919.12ZM906.16 148.816L944.7 51.475L982.9 148.816H906.16Z" fill="black"/>
<path d="M1126.42 5.62799H1082.57V238.184H1126.42V5.62799Z" fill="black"/>
</svg>
